<?xml version="1.0" encoding="utf-8"?>
<!-- Generator: Adobe Illustrator 21.1.0, SVG Export Plug-In . SVG Version: 6.00 Build 0)  -->
<svg version="1.1" id="Layer_1" xmlns="http://www.w3.org/2000/svg" xmlns:xlink="http://www.w3.org/1999/xlink" x="0px" y="0px"
	 viewBox="0 0 430 532.5" style="enable-background:new 0 0 430 532.5;" xml:space="preserve">
<g>
	<g>
		<path d="M132.4,105c1.7,4.2,6.6,6.4,10.8,4.7l32.1-12.6c4.3-1.7,6.4-6.5,4.7-10.8c-1.7-4.3-6.5-6.4-10.8-4.7l-32.1,12.6
			C132.8,95.9,130.7,100.7,132.4,105z"/>
	</g>
</g>
<g>
	<g>
		<path d="M68.2,130.2c1.7,4.3,6.7,6.3,10.8,4.7c0.1,0,32.1-12.6,32.1-12.6c4.3-1.7,6.4-6.5,4.7-10.8c-1.7-4.3-6.5-6.4-10.8-4.7
			l-32.1,12.6C68.6,121,66.5,125.9,68.2,130.2z"/>
	</g>
</g>
<g>
	<g>
		<path d="M327.6,180.7c0,4,2.7,7.3,6.4,8.1c0.6,0.1,1.3,0.2,1.9,0.2l34.5,0.1c4.6,0,8.4-3.7,8.4-8.3c0-4.6-3.7-8.4-8.3-8.4
			l-34.5-0.1C331.3,172.3,327.6,176.1,327.6,180.7z"/>
	</g>
</g>
<g>
	<g>
		<path d="M258.6,180.6c0,4,2.7,7.3,6.4,8.1c0.6,0.1,1.3,0.2,1.9,0.2l34.5,0.1c4.6,0,8.4-3.7,8.4-8.3c0-4.6-3.7-8.4-8.3-8.4
			l-34.5-0.1C262.4,172.2,258.6,175.9,258.6,180.6z"/>
	</g>
</g>
<g>
	<g>
		<path d="M236.8,216l-0.4,256.6c0,2.2,0.9,4.3,2.4,5.9c1.1,1.1,2.5,1.9,4,2.2c0.6,0.1,1.3,0.2,1.9,0.2l147,0.3
			c4.6,0,8.4-3.7,8.4-8.3l0.5-256.6c0-4.6-3.7-8.4-8.3-8.4l-34.9-0.1c-4.6,0-8.4,3.7-8.4,8.3s3.7,8.4,8.3,8.4l26.5,0l-0.4,239.9
			L253,464.3l0.4-239.9l69.8,0.1c4.6,0,8.4-3.7,8.4-8.3c0-4.6-3.7-8.4-8.3-8.4l-78.1-0.1C240.5,207.7,236.8,211.4,236.8,216z"/>
	</g>
</g>
<g>
	<g>
		<path d="M265.1,319l18.4,25.4L265,369.7c-2.1,2.9-2.1,6.9,0,9.8c2.1,2.9,5.9,4.2,9.3,3l29.8-9.6l18.4,25.4
			c1.2,1.7,2.9,2.8,4.8,3.2c1.4,0.3,3,0.3,4.5-0.2c3.4-1.1,5.8-4.3,5.8-7.9l0.1-31.3l29.8-9.6c3.4-1.1,5.8-4.3,5.8-7.9
			c0-3.6-2.3-6.8-5.8-7.9l-29.8-9.7l0.1-31.3c0-3.6-2.3-6.8-5.8-7.9c-3.4-1.1-7.2,0.1-9.3,3l-18.5,25.3l-29.8-9.7
			c-3.4-1.1-7.2,0.1-9.3,3C263,312.1,263,316.1,265.1,319z M293.7,330c6,1.9,15.7,7.2,20.5,0.6c0,0,6.9-9.5,6.9-9.5
			c0,6.3-2,17.1,5.7,19.7c0,0,11.1,3.6,11.1,3.6l-11.1,3.6c-3.4,1.1-5.8,4.3-5.8,7.9l0,11.7c-3.7-5.1-8.5-15-16.2-12.5
			c0,0-11.2,3.6-11.2,3.6l6.9-9.5C305.5,342.6,297.5,335.2,293.7,330z"/>
	</g>
</g>
<g>
	<g>
		<path d="M0.6,97.9l137.1,350c1.7,4.3,6.5,6.4,10.8,4.7c3.3-1.3,6.9-1.6,10.3-0.7c4.8,1.1,8.8,4.2,11.2,8.4c2,3.6,6.6,5.2,10.3,3.7
			c0,0,26.7-10.4,26.7-10.4l-0.1,48.1c0,2.2,0.9,4.3,2.4,5.9c2.9,2.9,6.3,2.1,9.9,2.9c6.9,1.6,12.2,7.5,13.2,14.6
			c0.5,4.1,4.1,7.2,8.3,7.2l51.9,0.1c4.2,0,7.7-3.1,8.3-7.2c2.7-19.4,31.8-19.4,34.4,0.1c0.6,4.1,4.1,7.2,8.3,7.2l51.9,0.1
			c4.2,0,7.7-3.1,8.3-7.2c1.2-8.6,8.6-15,17.2-15c4.6,0,8.4-3.7,8.4-8.3l0.6-321.1c0,0,0.1-54.8,0.1-54.8c0-4.6-3.7-8.4-8.3-8.4
			c-8.5,0-16-6.6-17.2-15c-0.6-4.1-4.1-7.2-8.3-7.2l-51.9-0.1c-4.2,0-7.7,3.1-8.3,7.2c-1.2,8.6-8.6,15-17.2,15
			c-8.5,0-16.1-6.6-17.2-15c-0.6-4.1-4.1-7.2-8.3-7.2l-51.9-0.1c-1,0-1.9,0.2-2.8,0.5l-30.9-79c-1.7-4.3-6.5-6.4-10.8-4.7
			c-3.3,1.3-6.9,1.6-10.3,0.7c-4.8-1.1-8.8-4.2-11.2-8.4c-2-3.6-6.4-5.2-10.3-3.7l-48.4,18.9c-3.9,1.5-6.1,5.7-5.1,9.7
			c2,8.4-2.5,17.1-10.5,20.3c-3.3,1.3-6.9,1.6-10.3,0.7c-4.8-1.1-8.8-4.2-11.2-8.4c-2-3.7-6.4-5.2-10.3-3.7L20.9,57
			c-3.9,1.5-6.1,5.7-5.1,9.7c2,8.4-2.5,17.1-10.5,20.3C1,88.7-1.1,93.6,0.6,97.9z M224,296l0.1-42.7c0,0,0-6.4,0-6.4l0.1-58.1l8.3,0
			c4.6,0,8.4-3.7,8.4-8.3c0-4.6-3.7-8.4-8.3-8.4l-8.3,0l0.1-39.1c7.4-1.9,14.1-6.3,18.7-12.4c1.6-2,2.9-4.2,3.9-6.5
			c0.1-0.2,0.8-2.3,0.9-2.3l39,0.1c4.9,13.2,17.8,22.3,31.9,22.3c14.4,0,27.1-9.1,32-22.2l39,0.1c3.8,10.4,12.6,18.5,23.6,21.2
			l-0.1,39.1l-8.3,0c-4.6,0-8.4,3.7-8.4,8.3c0,4,2.7,7.3,6.4,8.1c0.6,0.1,1.3,0.2,1.9,0.2l8.3,0l-0.5,305.5
			c-10.8,2.7-19.7,10.7-23.6,21.2l-39-0.1c-4.9-13.2-17.8-22.3-31.9-22.3c-14.4,0-27.1,9.1-32,22.2l-39-0.1
			c-3.8-10.4-12.6-18.5-23.6-21.2l0.1-53c0,0,0.1-55.1,0.1-55.1C223.8,386.2,224,296,224,296z M18.8,98.6
			c9.1-6.5,14.4-17.2,14.2-28.3L69.3,56c9.4,10.5,24.7,14.2,37.9,9.1c13.4-5.3,21.9-18.4,21.6-32.4l36.3-14.2
			c4.6,5.2,10.8,8.9,17.6,10.5c4,0.9,8.1,1.2,12.1,0.6L209.1,66l-7.8,3c-4.3,1.7-6.4,6.5-4.7,10.8c1.7,4.3,6.7,6.3,10.8,4.7
			c0,0,7.8-3,7.8-3l12.3,31.4c0,0,0,0-0.1,0.1c-3.2,2.8-7.3,4.4-11.5,4.4c-0.1,0-0.2,0-0.3,0l-2.3-5.9c-1.7-4.2-6.6-6.4-10.8-4.7
			c-0.2,0.1-136.9,53.6-136.9,53.6c-4.2,1.6-6.4,6.6-4.7,10.8c0,0.1,12.4,31.5,12.4,31.5c1.7,4.3,6.5,6.4,10.8,4.7
			c4.3-1.7,6.4-6.5,4.7-10.8l-9.3-23.8l121.3-47.5l6.7,17.2l-0.2,94.1l-11.9,0.7L184,208.1c-1.3-3.4-4.7-5.5-8.3-5.3
			c-3.6,0.2-6.7,2.7-7.6,6.2l-7.9,30.3l-31.3,1.9c-3.6,0.2-6.7,2.7-7.6,6.2c-0.9,3.5,0.5,7.2,3.6,9.1l26.4,16.9l-7.9,30.3
			c-0.9,3.5,0.5,7.2,3.6,9.1c0.8,0.5,1.7,0.9,2.6,1.1c2.5,0.6,5.2,0,7.2-1.7l24.2-19.9l26.2,16.7l-0.1,71.2l-40.2,15.7l-65.7-167.8
			c-1.7-4.3-6.5-6.4-10.8-4.7c-4.3,1.7-6.4,6.5-4.7,10.8l68.8,175.6c1.7,4.2,6.6,6.4,10.8,4.7l41.8-16.4l-0.1,37.1l-26.8,10.5
			c-4.6-5.2-10.8-8.9-17.6-10.5c-4-0.9-8.1-1.2-12.1-0.6L39.1,150.5l7.8-3c4.3-1.7,6.4-6.5,4.7-10.8c-1.7-4.3-6.5-6.4-10.8-4.7
			l-7.8,3L18.8,98.6z M169.1,271.9c0.9-3.5-0.5-7.2-3.6-9.1l-9.9-6.3c6.3-0.4,17.2,1,19.3-6.9c0,0,3-11.3,3-11.3
			c2.3,5.9,4.4,16.7,12.5,16.2c0,0,11.7-0.7,11.7-0.7l-9.1,7.4c-6.5,5.3-0.5,14.5,1.8,20.4l-9.9-6.3c-3-1.9-7-1.7-9.8,0.6
			c0,0-9.1,7.4-9.1,7.4L169.1,271.9z"/>
	</g>
</g>
</svg>
